<svg width="84" height="39" viewBox="0 0 84 39" fill="none" xmlns="http://www.w3.org/2000/svg">
<g clip-path="url(#clip0_5_357)">
<path d="M24 2H33.7715C37.4085 2 39.646 3.83652 39.646 6.84872C39.646 8.31534 39.1261 9.49003 38.1623 10.3288V10.4788C39.386 11.3715 40.1238 12.7402 40.1238 14.3577C40.1238 17.369 37.7185 19.4094 34.2494 19.4094H24V2ZM33.3016 8.89818C33.9644 8.89818 34.5173 8.35033 34.5173 7.63552C34.5173 6.91971 33.9644 6.37185 33.3016 6.37185H28.9027V8.89019H33.3016V8.89818ZM33.6715 15.0286C34.3583 15.0286 34.9192 14.4807 34.9192 13.7119C34.9192 12.9441 34.3583 12.3963 33.6705 12.3963H28.9017V15.0286H33.6715Z" fill="#1B1A21"/>
<path d="M4.92139 37.3322H14.6929C18.3299 37.3322 20.5673 35.4947 20.5673 32.4835C20.5673 31.0169 20.0475 29.8422 19.0837 29.0024V28.8524C20.3074 27.9607 21.0452 26.591 21.0452 24.9745C21.0452 21.9633 18.6398 19.9228 15.1707 19.9228H4.92139V37.3322ZM14.223 30.434C14.8858 30.434 15.4387 30.9809 15.4387 31.6967C15.4387 32.4125 14.8858 32.9594 14.223 32.9594H9.82412V30.442H14.223V30.434ZM14.5929 24.3036C15.2797 24.3036 15.8406 24.8515 15.8406 25.6193C15.8406 26.3881 15.2797 26.9359 14.5919 26.9359H9.82312V24.3036H14.5929Z" fill="#1B1A21"/>
<path d="M42.6157 19.9248H52.3872C56.0243 19.9248 58.2617 21.7613 58.2617 24.7735C58.2617 26.2401 57.7418 27.4148 56.7781 28.2536V28.4036C58.0017 29.2963 58.7396 30.665 58.7396 32.2826C58.7396 35.2938 56.3342 37.3342 52.8651 37.3342H42.6157V19.9248ZM51.9263 26.823C52.5881 26.823 53.141 26.2751 53.141 25.5593C53.141 24.8445 52.5881 24.2967 51.9263 24.2967H47.5275V26.814H51.9263V26.823ZM52.2952 32.9614C52.982 32.9614 53.5439 32.4145 53.5439 31.6457C53.5439 30.8769 52.982 30.3301 52.2942 30.3301H47.5265V32.9614H52.2952Z" fill="#1B1A21"/>
<path d="M34.5208 37.3432H27.8165L21.968 19.9248H27.4396L28.2434 22.6891H34.2189L34.9986 19.9248H40.3783L34.5208 37.3432ZM29.3921 26.69L31.1017 32.6175H31.3616L33.0711 26.69H29.3921Z" fill="#1B1A21"/>
</g>
<defs>
<clipPath id="clip0_5_357">
<rect width="82.73" height="37.99" fill="white" transform="translate(0.546875 0.0500488)"/>
</clipPath>
</defs>
</svg>
