<svg width="59" height="39" viewBox="0 0 59 39" fill="none" xmlns="http://www.w3.org/2000/svg">
<g clip-path="url(#clip0_2_432)">
<path d="M0 4.72656H7.72674C10.6027 4.72656 12.372 6.17879 12.372 8.56068C12.372 9.72041 11.9609 10.6493 11.1988 11.3126V11.4311C12.1664 12.1371 12.7498 13.2193 12.7498 14.4984C12.7498 16.8795 10.8478 18.493 8.10462 18.493H0V4.72656ZM7.35519 10.1813C7.87932 10.1813 8.31649 9.74808 8.31649 9.18284C8.31649 8.61681 7.87932 8.1836 7.35519 8.1836H3.87681V10.175H7.35519V10.1813ZM7.64769 15.0289C8.19079 15.0289 8.63428 14.5957 8.63428 13.9877C8.63428 13.3806 8.19079 12.9474 7.6469 12.9474H3.87602V15.0289H7.64769Z" fill="#1B1A21"/>
<path d="M0 33.9007H7.72674C10.6027 33.9007 12.372 32.4477 12.372 30.0666C12.372 28.9069 11.9609 27.978 11.1988 27.314V27.1954C12.1664 26.4902 12.7498 25.4072 12.7498 24.1289C12.7498 21.7478 10.8478 20.1343 8.10462 20.1343H0V33.9007ZM7.35519 28.446C7.87932 28.446 8.31649 28.8784 8.31649 29.4445C8.31649 30.0105 7.87932 30.4429 7.35519 30.4429H3.87681V28.4523H7.35519V28.446ZM7.64769 23.5984C8.19079 23.5984 8.63428 24.0316 8.63428 24.6388C8.63428 25.2467 8.19079 25.6799 7.6469 25.6799H3.87602V23.5984H7.64769Z" fill="#1B1A21"/>
<path d="M29.805 4.72656H37.5317C40.4077 4.72656 42.1769 6.17879 42.1769 8.56068C42.1769 9.72041 41.7658 10.6493 41.0045 11.3126V11.4311C41.9714 12.1371 42.5548 13.2193 42.5548 14.4984C42.5548 16.8795 40.6528 18.493 37.9096 18.493H29.805V4.72656ZM37.1673 10.1813C37.6906 10.1813 38.1286 9.74808 38.1286 9.18284C38.1286 8.61681 37.6906 8.1836 37.1673 8.1836H33.6889V10.175H37.1673V10.1813ZM37.459 15.0289C38.0021 15.0289 38.4464 14.5957 38.4464 13.9877C38.4464 13.3806 38.0021 12.9474 37.459 12.9474H33.6881V15.0289H37.459Z" fill="#1B1A21"/>
<path d="M29.8065 20.1357H37.5333C40.4093 20.1357 42.1785 21.588 42.1785 23.9699C42.1785 25.1296 41.7674 26.0585 41.0053 26.7217V26.8403C41.973 27.5463 42.5564 28.6285 42.5564 29.9076C42.5564 32.2887 40.6543 33.9022 37.9112 33.9022H29.8065V20.1357ZM37.1689 25.5905C37.6922 25.5905 38.1294 25.1573 38.1294 24.5912C38.1294 24.026 37.6922 23.5928 37.1689 23.5928H33.6905V25.5834H37.1689V25.5905ZM37.4606 30.4444C38.0037 30.4444 38.4479 30.012 38.4479 29.404C38.4479 28.7961 38.0037 28.3637 37.4598 28.3637H33.6897V30.4444H37.4606Z" fill="#1B1A21"/>
<path d="M18.1042 4.72656H23.4055L28.031 18.5001H23.7043L23.068 16.3135H18.3429L17.7263 18.5001H13.4724L18.1049 4.72656H18.1042ZM22.1596 13.1427L20.8078 8.45633H20.6023L19.2504 13.1427H22.1596Z" fill="#1B1A21"/>
<path d="M23.4055 33.9093H18.1042L13.4795 20.1357H17.8061L18.4417 22.3216H23.1668L23.7834 20.1357H28.0373L23.4055 33.9093ZM19.35 25.4853L20.7019 30.1724H20.9074L22.2592 25.4853H19.35Z" fill="#1B1A21"/>
<path d="M44.7699 11.977C44.7699 6.92703 48.1423 4.41943 51.4357 4.41943C55.7236 4.41943 58.3609 7.58318 58.3609 12.1651H54.239C54.239 9.58799 53.1061 8.46384 51.5551 8.46384C50.0776 8.46384 48.9384 9.637 48.9384 11.5019C48.9384 13.5549 51.0918 15.4064 53.3646 17.7393C55.8888 20.337 58.5 23.3197 58.5 27.0147C58.5 31.3445 55.8825 34.46 51.2966 34.46C46.7043 34.46 44.4782 30.0314 44.4782 26.6305H48.7329C48.7329 29.1523 50.1171 30.395 51.5156 30.395C53.2982 30.395 54.2785 29.0819 54.2785 27.4684C54.2785 25.4012 52.2049 23.2707 50.0246 20.952C47.4735 18.242 44.7699 15.2807 44.7699 11.977Z" fill="#1B1A21"/>
</g>
<defs>
<clipPath id="clip0_2_432">
<rect width="58.5" height="38" fill="white" transform="translate(0 0.439941)"/>
</clipPath>
</defs>
</svg>
