<svg width="20" height="21" viewBox="0 0 20 21" fill="none" xmlns="http://www.w3.org/2000/svg">
<g clip-path="url(#clip0_2_455)">
<path d="M3.921 0.254883C2.8832 0.25831 1.88889 0.672093 1.15505 1.40593C0.421208 2.13977 0.00742508 3.13408 0.0039978 4.17188V16.3299C0.0071629 17.3678 0.420862 18.3622 1.15476 19.0961C1.88865 19.83 2.88312 20.2437 3.921 20.2469H16.078C17.116 20.244 18.1106 19.8304 18.8445 19.0964C19.5785 18.3625 19.9921 17.3678 19.995 16.3299V4.17188C19.9918 3.134 19.5781 2.13954 18.8442 1.40564C18.1103 0.671747 17.1159 0.258048 16.078 0.254883H3.921ZM4.907 3.55388C5.94 3.55388 6.576 4.23188 6.596 5.12388C6.596 5.99488 5.94 6.69188 4.886 6.69188H4.867C3.854 6.69188 3.199 5.99488 3.199 5.12288C3.199 4.23188 3.874 3.55388 4.907 3.55388ZM13.808 7.71988C15.795 7.71988 17.284 9.01788 17.284 11.8089V17.0179H14.265V12.1579C14.265 10.9369 13.828 10.1039 12.735 10.1039C11.902 10.1039 11.405 10.6649 11.186 11.2079C11.106 11.4019 11.086 11.6729 11.086 11.9439V17.0179H8.069C8.069 17.0179 8.109 8.78488 8.069 7.93288H11.089V9.21988C11.489 8.59988 12.207 7.71988 13.809 7.71988H13.808ZM3.378 7.93388H6.396V17.0179H3.377L3.378 7.93388Z" fill="#1B1A21"/>
</g>
<defs>
<clipPath id="clip0_2_455">
<rect width="20" height="20" fill="white" transform="translate(0 0.25)"/>
</clipPath>
</defs>
</svg>
