<svg width="20" height="21" viewBox="0 0 20 21" fill="none" xmlns="http://www.w3.org/2000/svg">
<g clip-path="url(#clip0_2_459)">
<path fill-rule="evenodd" clip-rule="evenodd" d="M20 4.14501C19.2498 4.47125 18.4556 4.68521 17.643 4.78001C18.4965 4.27966 19.1375 3.48434 19.445 2.54401C18.6383 3.01585 17.7575 3.34755 16.84 3.52501C16.4532 3.12069 15.9883 2.79918 15.4734 2.58C14.9586 2.36083 14.4046 2.24856 13.845 2.25001C11.58 2.25001 9.74201 4.06001 9.74201 6.29001C9.74201 6.60801 9.77801 6.91601 9.84901 7.21001C8.22342 7.13301 6.63177 6.71776 5.17576 5.99078C3.71974 5.26381 2.43139 4.2411 1.39301 2.98801C1.02926 3.60265 0.837565 4.30381 0.838007 5.01801C0.839087 5.68599 1.0066 6.34318 1.32541 6.93017C1.64423 7.51716 2.10428 8.01545 2.66401 8.38001C2.01352 8.35966 1.37699 8.18631 0.806007 7.87401V7.92401C0.806007 9.88101 2.22001 11.515 4.09601 11.885C3.49136 12.0448 2.85874 12.068 2.24401 11.953C2.51241 12.7603 3.02526 13.4641 3.71151 13.9668C4.39775 14.4696 5.22339 14.7464 6.07401 14.759C4.61493 15.8849 2.82298 16.4938 0.980007 16.49C0.648007 16.49 0.323007 16.47 0.00100708 16.435C1.8829 17.624 4.064 18.2534 6.29001 18.25C13.836 18.25 17.962 12.094 17.962 6.75501C17.962 6.57801 17.959 6.40501 17.95 6.23201C18.7519 5.66229 19.4452 4.95341 19.997 4.13901L20 4.14501Z" fill="#1B1A21"/>
</g>
<defs>
<clipPath id="clip0_2_459">
<rect width="20" height="20" fill="white" transform="translate(0 0.25)"/>
</clipPath>
</defs>
</svg>
