<svg width="20" height="21" viewBox="0 0 20 21" fill="none" xmlns="http://www.w3.org/2000/svg">
<path d="M0.063 4.694C0.188955 4.14184 0.498656 3.64881 0.941391 3.29564C1.38413 2.94247 1.93366 2.75009 2.5 2.75H17.5C18.0665 2.74986 18.6163 2.94214 19.0592 3.29533C19.5022 3.64852 19.812 4.14167 19.938 4.694L10 10.768L0.062 4.694H0.063ZM0 6.12V15L7.254 10.553L0 6.12ZM8.451 11.286L0.24 16.322C0.442925 16.7495 0.763027 17.1107 1.16309 17.3635C1.56316 17.6162 2.02676 17.7503 2.5 17.75H17.5C17.9735 17.7501 18.4372 17.6158 18.8373 17.3626C19.2374 17.1095 19.5574 16.7479 19.76 16.32L11.547 11.286L10 12.233L8.451 11.286ZM12.746 10.554L20 15.001V6.121L12.746 10.554Z" fill="#1B1A21"/>
</svg>
