<svg width="20" height="21" viewBox="0 0 20 21" fill="none" xmlns="http://www.w3.org/2000/svg">
<g clip-path="url(#clip0_2_467)">
<path d="M9.99801 6.91493C9.11409 6.91678 8.26689 7.26874 7.64186 7.89377C7.01682 8.51881 6.66486 9.366 6.66301 10.2499C6.66486 11.1339 7.01682 11.9811 7.64186 12.6061C8.26689 13.2311 9.11409 13.5831 9.99801 13.5849C10.8819 13.5831 11.7291 13.2311 12.3542 12.6061C12.9792 11.9811 13.3312 11.1339 13.333 10.2499C13.3312 9.366 12.9792 8.51881 12.3542 7.89377C11.7291 7.26874 10.8819 6.91678 9.99801 6.91493ZM19.999 10.2499C19.999 8.86893 20.012 7.49993 19.934 6.12193C19.857 4.52093 19.491 3.09993 18.321 1.92893C17.147 0.755932 15.729 0.392932 14.128 0.315932C12.748 0.237932 11.378 0.249932 10 0.249932C8.62001 0.249932 7.25101 0.237932 5.87301 0.315932C4.27201 0.392932 2.85001 0.758932 1.68001 1.92893C0.507013 3.10293 0.144013 4.52093 0.0660133 6.12193C-0.00998672 7.50293 0.00101327 8.87193 0.00101327 10.2499C0.00101327 11.6279 -0.0109867 12.9999 0.0660133 14.3769C0.144013 15.9799 0.510013 17.3999 1.68001 18.5699C2.85301 19.7439 4.27201 20.1059 5.87301 20.1839C7.25301 20.2609 8.62201 20.2489 10 20.2489C11.381 20.2489 12.75 20.2609 14.128 20.1839C15.729 20.1059 17.15 19.7409 18.321 18.5699C19.494 17.3969 19.857 15.9789 19.934 14.3769C20.014 12.9989 19.999 11.6309 19.999 10.2499ZM9.99801 15.3799C9.32403 15.3809 8.65648 15.2488 8.03361 14.9913C7.41073 14.7339 6.84478 14.356 6.36815 13.8795C5.89152 13.403 5.51359 12.8371 5.256 12.2143C4.99841 11.5914 4.86622 10.9239 4.86701 10.2499C4.86596 9.57591 4.99793 8.9083 5.25535 8.28537C5.51277 7.66244 5.89058 7.09643 6.36715 6.61977C6.84371 6.14312 7.40964 5.76519 8.03253 5.50765C8.65541 5.25011 9.32299 5.11801 9.99701 5.11893C10.6711 5.11788 11.3387 5.24984 11.9617 5.50725C12.5847 5.76466 13.1508 6.14246 13.6275 6.619C14.1043 7.09555 14.4823 7.66148 14.7399 8.28437C14.9976 8.90726 15.1298 9.57486 15.129 10.2489C15.1299 10.923 14.9979 11.5907 14.7403 12.2137C14.4828 12.8367 14.1049 13.4028 13.6283 13.8795C13.1517 14.3562 12.5857 14.7342 11.9627 14.9919C11.3398 15.2495 10.6721 15.3807 9.99801 15.3799ZM15.338 6.10693C15.1807 6.10693 15.025 6.07594 14.8797 6.01572C14.7344 5.9555 14.6024 5.86724 14.4913 5.75599C14.3801 5.64473 14.2919 5.51265 14.2318 5.36731C14.1717 5.22197 14.1409 5.06621 14.141 4.90893C14.141 4.24593 14.676 3.71093 15.339 3.71093C15.5764 3.7101 15.8087 3.77989 16.0064 3.91142C16.204 4.04295 16.3581 4.23029 16.449 4.44961C16.5399 4.66894 16.5635 4.91034 16.5169 5.14313C16.4702 5.37591 16.3554 5.58957 16.187 5.75693C16.0756 5.86817 15.9434 5.95634 15.7979 6.01639C15.6524 6.07645 15.4954 6.10722 15.338 6.10693Z" fill="#1B1A21"/>
</g>
<defs>
<clipPath id="clip0_2_467">
<rect width="20" height="20" fill="white" transform="translate(0 0.25)"/>
</clipPath>
</defs>
</svg>
