<svg width="12" height="16" viewBox="0 0 12 16" fill="none" xmlns="http://www.w3.org/2000/svg">
<g clip-path="url(#clip0_2_472)">
<path fill-rule="evenodd" clip-rule="evenodd" d="M6.37326 15.4726C6.23261 15.6132 6.04188 15.6922 5.84301 15.6922C5.64413 15.6922 5.4534 15.6132 5.31276 15.4726L0.539758 10.6996C0.403139 10.5582 0.327543 10.3687 0.329252 10.1721C0.330961 9.97543 0.409837 9.78732 0.548894 9.64827C0.68795 9.50921 0.876059 9.43034 1.07271 9.42863C1.26935 9.42692 1.45881 9.50251 1.60026 9.63913L5.09301 13.1319V1.62988C5.09301 1.43097 5.17203 1.24021 5.31268 1.09955C5.45333 0.9589 5.6441 0.879883 5.84301 0.879883C6.04192 0.879883 6.23269 0.9589 6.37334 1.09955C6.51399 1.24021 6.59301 1.43097 6.59301 1.62988V13.1319L10.0858 9.63913C10.2272 9.50251 10.4167 9.42692 10.6133 9.42863C10.81 9.43034 10.9981 9.50921 11.1371 9.64827C11.2762 9.78732 11.3551 9.97543 11.3568 10.1721C11.3585 10.3687 11.2829 10.5582 11.1463 10.6996L6.37326 15.4726Z" fill="white"/>
</g>
<defs>
<clipPath id="clip0_2_472">
<rect width="11.25" height="15" fill="white" transform="translate(0.320007 0.879883)"/>
</clipPath>
</defs>
</svg>
