<svg width="59" height="25" viewBox="0 0 59 25" fill="none" xmlns="http://www.w3.org/2000/svg">
<g clip-path="url(#clip0_2_487)">
<path d="M0 2.88037H7.72674C10.6027 2.88037 12.372 3.79183 12.372 5.28679C12.372 6.01467 11.9609 6.59766 11.1988 7.01395V7.08837C12.1664 7.53145 12.7498 8.21071 12.7498 9.01351C12.7498 10.508 10.8478 11.5206 8.10462 11.5206H0V2.88037ZM7.35519 6.30393C7.87932 6.30393 8.31649 6.03203 8.31649 5.67727C8.31649 5.32201 7.87932 5.05011 7.35519 5.05011H3.87681V6.29996H7.35519V6.30393ZM7.64769 9.34643C8.19079 9.34643 8.63428 9.07453 8.63428 8.69298C8.63428 8.31192 8.19079 8.04002 7.6469 8.04002H3.87602V9.34643H7.64769Z" fill="#1B1A21"/>
<path d="M0 21.1908H7.72674C10.6027 21.1908 12.372 20.2789 12.372 18.7844C12.372 18.0565 11.9609 17.4735 11.1988 17.0567V16.9823C12.1664 16.5397 12.7498 15.86 12.7498 15.0577C12.7498 13.5632 10.8478 12.5505 8.10462 12.5505H0V21.1908ZM7.35519 17.7672C7.87932 17.7672 8.31649 18.0387 8.31649 18.3939C8.31649 18.7492 7.87932 19.0206 7.35519 19.0206H3.87681V17.7712H7.35519V17.7672ZM7.64769 14.7247C8.19079 14.7247 8.63428 14.9966 8.63428 15.3777C8.63428 15.7593 8.19079 16.0312 7.6469 16.0312H3.87602V14.7247H7.64769Z" fill="#1B1A21"/>
<path d="M29.805 2.88037H37.5317C40.4077 2.88037 42.1769 3.79183 42.1769 5.28679C42.1769 6.01467 41.7658 6.59766 41.0045 7.01395V7.08837C41.9714 7.53145 42.5548 8.21071 42.5548 9.01351C42.5548 10.508 40.6528 11.5206 37.9096 11.5206H29.805V2.88037ZM37.1673 6.30393C37.6906 6.30393 38.1286 6.03203 38.1286 5.67727C38.1286 5.32201 37.6906 5.05011 37.1673 5.05011H33.6889V6.29996H37.1673V6.30393ZM37.459 9.34643C38.0021 9.34643 38.4464 9.07453 38.4464 8.69298C38.4464 8.31192 38.0021 8.04002 37.459 8.04002H33.6881V9.34643H37.459Z" fill="#1B1A21"/>
<path d="M29.8065 12.5515H37.5333C40.4093 12.5515 42.1785 13.463 42.1785 14.9579C42.1785 15.6858 41.7674 16.2688 41.0053 16.6851V16.7595C41.973 17.2026 42.5564 17.8818 42.5564 18.6846C42.5564 20.1791 40.6543 21.1918 37.9112 21.1918H29.8065V12.5515ZM37.1689 15.9751C37.6922 15.9751 38.1294 15.7032 38.1294 15.3479C38.1294 14.9932 37.6922 14.7213 37.1689 14.7213H33.6905V15.9706H37.1689V15.9751ZM37.4606 19.0215C38.0037 19.0215 38.4479 18.7501 38.4479 18.3686C38.4479 17.987 38.0037 17.7156 37.4598 17.7156H33.6897V19.0215H37.4606Z" fill="#1B1A21"/>
<path d="M18.1042 2.88037H23.4055L28.031 11.5251H23.7043L23.068 10.1527H18.3429L17.7263 11.5251H13.4724L18.1049 2.88037H18.1042ZM22.1596 8.16258L20.8078 5.22129H20.6023L19.2504 8.16258H22.1596Z" fill="#1B1A21"/>
<path d="M23.4055 21.1963H18.1042L13.4795 12.5515H17.8061L18.4417 13.9234H23.1668L23.7834 12.5515H28.0373L23.4055 21.1963ZM19.35 15.9091L20.7019 18.8509H20.9074L22.2592 15.9091H19.35Z" fill="#1B1A21"/>
<path d="M44.7699 7.43111C44.7699 4.26159 48.1423 2.68774 51.4357 2.68774C55.7236 2.68774 58.3609 4.67341 58.3609 7.5492H54.239C54.239 5.93169 53.1061 5.22614 51.5551 5.22614C50.0776 5.22614 48.9384 5.96245 48.9384 7.13292C48.9384 8.42146 51.0918 9.58349 53.3646 11.0477C55.8888 12.6781 58.5 14.5501 58.5 16.8692C58.5 19.5867 55.8825 21.5421 51.2966 21.5421C46.7043 21.5421 44.4782 18.7626 44.4782 16.6281H48.7329C48.7329 18.2109 50.1171 18.9908 51.5156 18.9908C53.2982 18.9908 54.2785 18.1667 54.2785 17.154C54.2785 15.8565 52.2049 14.5194 50.0246 13.0641C47.4735 11.3632 44.7699 9.5046 44.7699 7.43111Z" fill="#1B1A21"/>
</g>
<defs>
<clipPath id="clip0_2_487">
<rect width="58.5" height="23.85" fill="white" transform="translate(0 0.189941)"/>
</clipPath>
</defs>
</svg>
