<svg width="59" height="39" viewBox="0 0 59 39" fill="none" xmlns="http://www.w3.org/2000/svg">
<g clip-path="url(#clip0_1_86)">
<path d="M0 4.31653H7.72674C10.6027 4.31653 12.372 5.76875 12.372 8.15065C12.372 9.31037 11.9609 10.2393 11.1988 10.9025V11.0211C12.1664 11.7271 12.7498 12.8093 12.7498 14.0884C12.7498 16.4695 10.8478 18.083 8.10462 18.083H0V4.31653ZM7.35519 9.77126C7.87932 9.77126 8.31649 9.33804 8.31649 8.77281C8.31649 8.20678 7.87932 7.77356 7.35519 7.77356H3.87681V9.76493H7.35519V9.77126ZM7.64769 14.6189C8.19079 14.6189 8.63428 14.1856 8.63428 13.5777C8.63428 12.9706 8.19079 12.5374 7.6469 12.5374H3.87602V14.6189H7.64769Z" fill="#1B1A21"/>
<path d="M0 33.4906H7.72674C10.6027 33.4906 12.372 32.0376 12.372 29.6565C12.372 28.4968 11.9609 27.5679 11.1988 26.9038V26.7852C12.1664 26.0801 12.7498 24.997 12.7498 23.7187C12.7498 21.3376 10.8478 19.7241 8.10462 19.7241H0V33.4906ZM7.35519 28.0359C7.87932 28.0359 8.31649 28.4683 8.31649 29.0343C8.31649 29.6003 7.87932 30.0328 7.35519 30.0328H3.87681V28.0422H7.35519V28.0359ZM7.64769 23.1883C8.19079 23.1883 8.63428 23.6215 8.63428 24.2286C8.63428 24.8365 8.19079 25.2698 7.6469 25.2698H3.87602V23.1883H7.64769Z" fill="#1B1A21"/>
<path d="M29.8049 4.31653H37.5317C40.4077 4.31653 42.1769 5.76875 42.1769 8.15065C42.1769 9.31037 41.7658 10.2393 41.0045 10.9025V11.0211C41.9714 11.7271 42.5548 12.8093 42.5548 14.0884C42.5548 16.4695 40.6527 18.083 37.9096 18.083H29.8049V4.31653ZM37.1672 9.77126C37.6906 9.77126 38.1285 9.33804 38.1285 8.77281C38.1285 8.20678 37.6906 7.77356 37.1672 7.77356H33.6889V9.76493H37.1672V9.77126ZM37.4589 14.6189C38.002 14.6189 38.4463 14.1856 38.4463 13.5777C38.4463 12.9706 38.002 12.5374 37.4589 12.5374H33.6881V14.6189H37.4589Z" fill="#1B1A21"/>
<path d="M29.8065 19.7257H37.5333C40.4092 19.7257 42.1785 21.1779 42.1785 23.5598C42.1785 24.7196 41.7674 25.6484 41.0053 26.3117V26.4303C41.9729 27.1362 42.5564 28.2185 42.5564 29.4976C42.5564 31.8787 40.6543 33.4922 37.9111 33.4922H29.8065V19.7257ZM37.1688 25.1804C37.6922 25.1804 38.1293 24.7472 38.1293 24.1812C38.1293 23.616 37.6922 23.1827 37.1688 23.1827H33.6904V25.1733H37.1688V25.1804ZM37.4605 30.0344C38.0036 30.0344 38.4479 29.6019 38.4479 28.994C38.4479 28.3861 38.0036 27.9537 37.4597 27.9537H33.6897V30.0344H37.4605Z" fill="#1B1A21"/>
<path d="M18.1042 4.31653H23.4056L28.031 18.0901H23.7044L23.068 15.9035H18.3429L17.7263 18.0901H13.4724L18.105 4.31653H18.1042ZM22.1597 12.7326L20.8078 8.0463H20.6023L19.2505 12.7326H22.1597Z" fill="#1B1A21"/>
<path d="M23.4055 33.4993H18.1042L13.4795 19.7257H17.8061L18.4417 21.9116H23.1668L23.7834 19.7257H28.0373L23.4055 33.4993ZM19.35 25.0753L20.7019 29.7624H20.9074L22.2592 25.0753H19.35Z" fill="#1B1A21"/>
<path d="M44.7699 11.5673C44.7699 6.51736 48.1424 4.00977 51.4358 4.00977C55.7237 4.00977 58.3609 7.17351 58.3609 11.7555H54.239C54.239 9.17832 53.1062 8.05417 51.5551 8.05417C50.0776 8.05417 48.9384 9.22733 48.9384 11.0922C48.9384 13.1453 51.0919 14.9967 53.3647 17.3296C55.8889 19.9273 58.5 22.91 58.5 26.605C58.5 30.9348 55.8825 34.0503 51.2966 34.0503C46.7044 34.0503 44.4782 29.6217 44.4782 26.2208H48.7329C48.7329 28.7426 50.1171 29.9853 51.5156 29.9853C53.2983 29.9853 54.2785 28.6723 54.2785 27.0588C54.2785 24.9915 52.205 22.861 50.0246 20.5423C47.4736 17.8324 44.7699 14.871 44.7699 11.5673Z" fill="#1B1A21"/>
</g>
<defs>
<clipPath id="clip0_1_86">
<rect width="58.5" height="38" fill="white" transform="translate(0 0.0300293)"/>
</clipPath>
</defs>
</svg>
