<svg width="59" height="39" viewBox="0 0 59 39" fill="none" xmlns="http://www.w3.org/2000/svg">
<g clip-path="url(#clip0_1_114)">
<path d="M0 4.29146H7.72674C10.6027 4.29146 12.372 5.74368 12.372 8.12558C12.372 9.2853 11.9609 10.2142 11.1988 10.8775V10.996C12.1664 11.702 12.7498 12.7842 12.7498 14.0633C12.7498 16.4444 10.8478 18.0579 8.10462 18.0579H0V4.29146ZM7.35519 9.74619C7.87932 9.74619 8.31649 9.31297 8.31649 8.74774C8.31649 8.18171 7.87932 7.74849 7.35519 7.74849H3.87681V9.73986H7.35519V9.74619ZM7.64769 14.5938C8.19079 14.5938 8.63428 14.1606 8.63428 13.5526C8.63428 12.9455 8.19079 12.5123 7.6469 12.5123H3.87602V14.5938H7.64769Z" fill="white"/>
<path d="M0 33.4656H7.72674C10.6027 33.4656 12.372 32.0126 12.372 29.6314C12.372 28.4717 11.9609 27.5428 11.1988 26.8788V26.7602C12.1664 26.055 12.7498 24.972 12.7498 23.6937C12.7498 21.3126 10.8478 19.6991 8.10462 19.6991H0V33.4656ZM7.35519 28.0108C7.87932 28.0108 8.31649 28.4433 8.31649 29.0093C8.31649 29.5753 7.87932 30.0077 7.35519 30.0077H3.87681V28.0172H7.35519V28.0108ZM7.64769 23.1632C8.19079 23.1632 8.63428 23.5965 8.63428 24.2036C8.63428 24.8115 8.19079 25.2447 7.6469 25.2447H3.87602V23.1632H7.64769Z" fill="white"/>
<path d="M29.8049 4.29146H37.5317C40.4077 4.29146 42.1769 5.74368 42.1769 8.12558C42.1769 9.2853 41.7658 10.2142 41.0045 10.8775V10.996C41.9714 11.702 42.5548 12.7842 42.5548 14.0633C42.5548 16.4444 40.6527 18.0579 37.9096 18.0579H29.8049V4.29146ZM37.1672 9.74619C37.6906 9.74619 38.1285 9.31297 38.1285 8.74774C38.1285 8.18171 37.6906 7.74849 37.1672 7.74849H33.6889V9.73986H37.1672V9.74619ZM37.4589 14.5938C38.002 14.5938 38.4463 14.1606 38.4463 13.5526C38.4463 12.9455 38.002 12.5123 37.4589 12.5123H33.6881V14.5938H37.4589Z" fill="white"/>
<path d="M29.8065 19.7007H37.5333C40.4092 19.7007 42.1785 21.1529 42.1785 23.5348C42.1785 24.6945 41.7674 25.6234 41.0053 26.2867V26.4052C41.9729 27.1112 42.5564 28.1934 42.5564 29.4725C42.5564 31.8536 40.6543 33.4671 37.9111 33.4671H29.8065V19.7007ZM37.1688 25.1554C37.6922 25.1554 38.1293 24.7222 38.1293 24.1562C38.1293 23.5909 37.6922 23.1577 37.1688 23.1577H33.6904V25.1483H37.1688V25.1554ZM37.4605 30.0093C38.0036 30.0093 38.4479 29.5769 38.4479 28.969C38.4479 28.361 38.0036 27.9286 37.4597 27.9286H33.6897V30.0093H37.4605Z" fill="white"/>
<path d="M18.1042 4.29146H23.4056L28.031 18.065H23.7044L23.068 15.8784H18.3429L17.7263 18.065H13.4724L18.105 4.29146H18.1042ZM22.1597 12.7076L20.8078 8.02123H20.6023L19.2505 12.7076H22.1597Z" fill="white"/>
<path d="M23.4055 33.4743H18.1042L13.4795 19.7007H17.8061L18.4417 21.8865H23.1668L23.7834 19.7007H28.0373L23.4055 33.4743ZM19.35 25.0503L20.7019 29.7374H20.9074L22.2592 25.0503H19.35Z" fill="white"/>
<path d="M44.7699 11.5423C44.7699 6.49232 48.1424 3.98473 51.4358 3.98473C55.7237 3.98473 58.3609 7.14847 58.3609 11.7304H54.239C54.239 9.15328 53.1062 8.02913 51.5551 8.02913C50.0776 8.02913 48.9384 9.20229 48.9384 11.0672C48.9384 13.1202 51.0919 14.9717 53.3647 17.3045C55.8889 19.9023 58.5 22.885 58.5 26.58C58.5 30.9097 55.8825 34.0253 51.2966 34.0253C46.7044 34.0253 44.4782 29.5967 44.4782 26.1958H48.7329C48.7329 28.7176 50.1171 29.9603 51.5156 29.9603C53.2983 29.9603 54.2785 28.6472 54.2785 27.0337C54.2785 24.9665 52.205 22.836 50.0246 20.5173C47.4736 17.8073 44.7699 14.846 44.7699 11.5423Z" fill="white"/>
</g>
<defs>
<clipPath id="clip0_1_114">
<rect width="58.5" height="38" fill="white" transform="translate(0 0.00499725)"/>
</clipPath>
</defs>
</svg>
