<svg width="16" height="14" viewBox="0 0 16 14" fill="none" xmlns="http://www.w3.org/2000/svg">
<path fill-rule="evenodd" clip-rule="evenodd" d="M16 2.49599C15.3998 2.75698 14.7645 2.92815 14.1144 3.00399C14.7972 2.60371 15.31 1.96746 15.556 1.21519C14.9107 1.59266 14.206 1.85802 13.472 1.99999C13.1625 1.67653 12.7906 1.41932 12.3787 1.24398C11.9668 1.06864 11.5236 0.97883 11.076 0.979992C9.26399 0.979992 7.79359 2.42799 7.79359 4.21199C7.79359 4.46639 7.82239 4.71279 7.87919 4.94799C6.57872 4.88639 5.3054 4.55418 4.14059 3.97261C2.97578 3.39103 1.9451 2.57286 1.11439 1.57039C0.823398 2.0621 0.670039 2.62303 0.670393 3.19439C0.671257 3.72878 0.80527 4.25452 1.06032 4.72411C1.31537 5.19371 1.68341 5.59234 2.13119 5.88399C1.61081 5.86771 1.10158 5.72903 0.644793 5.47919V5.51919C0.644793 7.08479 1.77599 8.39199 3.27679 8.68799C2.79307 8.81579 2.28698 8.83437 1.79519 8.74239C2.00991 9.3882 2.4202 9.95122 2.96919 10.3534C3.51819 10.7557 4.1787 10.9771 4.85919 10.9872C3.69194 11.8879 2.25837 12.3751 0.783993 12.372C0.518394 12.372 0.258393 12.356 0.000793457 12.328C1.50631 13.2791 3.25119 13.7827 5.03199 13.78C11.0688 13.78 14.3696 8.85519 14.3696 4.58399C14.3696 4.44239 14.3672 4.30399 14.36 4.16559C15.0015 3.70981 15.5562 3.14271 15.9976 2.49119L16 2.49599Z" fill="white"/>
</svg>
