<svg width="16" height="17" viewBox="0 0 16 17" fill="none" xmlns="http://www.w3.org/2000/svg">
<path d="M7.99846 5.71254C7.29132 5.71402 6.61356 5.99558 6.11354 6.49561C5.61351 6.99564 5.33194 7.67339 5.33046 8.38054C5.33194 9.08768 5.61351 9.76544 6.11354 10.2655C6.61356 10.7655 7.29132 11.0471 7.99846 11.0485C8.70561 11.0471 9.38336 10.7655 9.88339 10.2655C10.3834 9.76544 10.665 9.08768 10.6665 8.38054C10.665 7.67339 10.3834 6.99564 9.88339 6.49561C9.38336 5.99558 8.70561 5.71402 7.99846 5.71254ZM15.9993 8.38054C15.9993 7.27574 16.0097 6.18054 15.9473 5.07814C15.8857 3.79734 15.5929 2.66054 14.6569 1.72374C13.7177 0.785336 12.5833 0.494936 11.3025 0.433336C10.1985 0.370936 9.10246 0.380536 8.00006 0.380536C6.89606 0.380536 5.80086 0.370936 4.69846 0.433336C3.41766 0.494936 2.28006 0.787736 1.34406 1.72374C0.405662 2.66294 0.115263 3.79734 0.0528625 5.07814C-0.0079375 6.18294 0.000862499 7.27814 0.000862499 8.38054C0.000862499 9.48294 -0.0087375 10.5805 0.0528625 11.6821C0.115263 12.9645 0.408062 14.1005 1.34406 15.0365C2.28246 15.9757 3.41766 16.2653 4.69846 16.3277C5.80246 16.3893 6.89766 16.3797 8.00006 16.3797C9.10486 16.3797 10.2001 16.3893 11.3025 16.3277C12.5833 16.2653 13.7201 15.9733 14.6569 15.0365C15.5953 14.0981 15.8857 12.9637 15.9473 11.6821C16.0113 10.5797 15.9993 9.48534 15.9993 8.38054ZM7.99846 12.4845C7.45927 12.4853 6.92523 12.3796 6.42694 12.1737C5.92864 11.9677 5.47587 11.6654 5.09457 11.2842C4.71327 10.903 4.41092 10.4503 4.20485 9.952C3.99878 9.45374 3.89303 8.91973 3.89366 8.38054C3.89282 7.84132 3.99839 7.30723 4.20433 6.80889C4.41027 6.31054 4.71252 5.85773 5.09377 5.47641C5.47502 5.09509 5.92777 4.79274 6.42607 4.58671C6.92438 4.38068 7.45844 4.275 7.99766 4.27574C8.53692 4.27489 9.07104 4.38046 9.56943 4.58639C10.0678 4.79231 10.5207 5.09456 10.9021 5.47579C11.2835 5.85703 11.5859 6.30978 11.792 6.80809C11.9981 7.3064 12.1039 7.84048 12.1033 8.37974C12.104 8.91903 11.9983 9.45317 11.7923 9.95157C11.5863 10.45 11.284 10.9028 10.9027 11.2842C10.5214 11.6656 10.0686 11.968 9.57023 12.1741C9.07188 12.3802 8.53776 12.4852 7.99846 12.4845ZM12.2705 5.06614C12.1446 5.06614 12.0201 5.04134 11.9038 4.99317C11.7876 4.94499 11.682 4.87439 11.5931 4.78538C11.5041 4.69637 11.4336 4.59071 11.3855 4.47444C11.3374 4.35817 11.3128 4.23356 11.3129 4.10774C11.3129 3.57734 11.7409 3.14934 12.2713 3.14934C12.4612 3.14867 12.647 3.2045 12.8052 3.30973C12.9633 3.41495 13.0865 3.56482 13.1593 3.74028C13.232 3.91574 13.2509 4.10886 13.2136 4.29509C13.1762 4.48132 13.0844 4.65225 12.9497 4.78614C12.8606 4.87512 12.7548 4.94566 12.6384 4.99371C12.5219 5.04175 12.3964 5.06637 12.2705 5.06614Z" fill="white"/>
</svg>
