<svg width="16" height="13" viewBox="0 0 16 13" fill="none" xmlns="http://www.w3.org/2000/svg">
<path d="M0.0504 1.9352C0.151164 1.49348 0.398925 1.09905 0.753113 0.816516C1.1073 0.53398 1.54693 0.380075 2 0.380005H14C14.4532 0.379894 14.893 0.533716 15.2474 0.816267C15.6017 1.09882 15.8496 1.49334 15.9504 1.9352L8 6.7944L0.0496 1.9352H0.0504ZM0 3.076V10.18L5.8032 6.62241L0 3.076ZM6.7608 7.20881L0.192 11.2376C0.35434 11.5796 0.610421 11.8685 0.930475 12.0708C1.25053 12.273 1.62141 12.3802 2 12.38H14C14.3788 12.3801 14.7498 12.2726 15.0698 12.0701C15.3899 11.8676 15.6459 11.5783 15.808 11.236L9.2376 7.20881L8 7.9664L6.7608 7.20881ZM10.1968 6.6232L16 10.1808V3.0768L10.1968 6.6232Z" fill="white"/>
</svg>
