<svg width="16" height="17" viewBox="0 0 16 17" fill="none" xmlns="http://www.w3.org/2000/svg">
<path d="M3.1368 0.384033C2.30656 0.386775 1.51111 0.717802 0.924036 1.30487C0.336965 1.89194 0.00593854 2.68739 0.00319672 3.51763V13.244C0.00572879 14.0743 0.336688 14.8699 0.923804 15.457C1.51092 16.0441 2.30649 16.3751 3.1368 16.3776H12.8624C13.6928 16.3753 14.4885 16.0444 15.0756 15.4573C15.6628 14.8701 15.9937 14.0744 15.996 13.244V3.51763C15.9935 2.68733 15.6625 1.89176 15.0754 1.30464C14.4883 0.717525 13.6927 0.386565 12.8624 0.384033H3.1368ZM3.9256 3.02323C4.752 3.02323 5.2608 3.56563 5.2768 4.27923C5.2768 4.97603 4.752 5.53363 3.9088 5.53363H3.8936C3.0832 5.53363 2.5592 4.97603 2.5592 4.27843C2.5592 3.56563 3.0992 3.02323 3.9256 3.02323ZM11.0464 6.35603C12.636 6.35603 13.8272 7.39443 13.8272 9.62723V13.7944H11.412V9.90643C11.412 8.92963 11.0624 8.26323 10.188 8.26323C9.5216 8.26323 9.124 8.71203 8.9488 9.14643C8.8848 9.30163 8.8688 9.51843 8.8688 9.73523V13.7944H6.4552C6.4552 13.7944 6.4872 7.20803 6.4552 6.52643H8.8712V7.55603C9.1912 7.06003 9.7656 6.35603 11.0472 6.35603H11.0464ZM2.7024 6.52723H5.1168V13.7944H2.7016L2.7024 6.52723Z" fill="white"/>
</svg>
